<?xml version="1.0" standalone="no"?>
<!DOCTYPE svg PUBLIC "-//W3C//DTD SVG 20010904//EN"
 "http://www.w3.org/TR/2001/REC-SVG-20010904/DTD/svg10.dtd">
<svg version="1.0" xmlns="http://www.w3.org/2000/svg"
 width="1024.000000pt" height="1024.000000pt" viewBox="0 0 1024.000000 1024.000000"
 preserveAspectRatio="xMidYMid meet">

<g transform="translate(0.000000,1024.000000) scale(0.100000,-0.100000)"
fill="#000000" stroke="none">
<path d="M0 5120 l0 -5120 5120 0 5120 0 0 5120 0 5120 -5120 0 -5120 0 0
-5120z m5496 4115 c199 -19 273 -29 452 -65 522 -106 1015 -312 1467 -613
1006 -671 1668 -1752 1811 -2957 25 -210 30 -638 9 -850 -50 -528 -177 -980
-405 -1445 -327 -667 -828 -1237 -1440 -1638 -547 -357 -1140 -573 -1800 -654
-204 -25 -744 -25 -945 0 -667 83 -1276 307 -1820 670 -924 616 -1568 1593
-1769 2682 -52 280 -61 395 -61 755 0 360 9 475 61 755 187 1016 753 1928
1585 2552 623 468 1341 742 2129 812 162 14 555 12 726 -4z"/>
<path d="M4190 8455 c-689 -192 -1316 -605 -1764 -1160 -137 -171 -297 -420
-395 -616 -189 -377 -290 -712 -353 -1169 -20 -148 -17 -663 5 -815 34 -232
71 -407 103 -489 19 -48 91 -158 136 -207 81 -89 207 -165 333 -201 65 -19
103 -23 205 -22 224 1 281 38 388 255 71 144 119 201 237 285 314 221 812 450
1345 617 288 91 680 193 680 177 0 -13 -456 -447 -620 -591 -363 -318 -845
-647 -1145 -782 l-70 -32 -215 0 c-242 -1 -272 -7 -343 -78 -170 -170 -241
-474 -167 -712 52 -166 132 -269 350 -451 503 -420 1102 -683 1777 -780 147
-21 578 -30 740 -15 238 22 478 68 708 138 507 153 1015 449 1376 803 83 81
103 107 137 180 66 139 77 187 77 340 -1 125 -3 141 -32 223 -41 115 -85 188
-159 264 -83 84 -102 89 -337 85 -185 -3 -188 -2 -277 27 -129 44 -222 94
-425 229 -286 190 -557 399 -819 631 -158 140 -543 517 -536 524 3 3 100 -19
215 -48 524 -132 984 -306 1515 -571 334 -167 421 -243 526 -460 97 -200 160
-247 351 -260 221 -15 425 65 577 226 61 65 119 151 144 215 35 90 85 352 107
555 17 157 20 522 5 671 -98 979 -581 1845 -1359 2438 -306 233 -648 410
-1046 542 -125 41 -135 43 -255 43 -103 1 -138 -3 -200 -23 -211 -66 -364
-198 -462 -400 -37 -77 -42 -94 -42 -161 -1 -69 3 -81 38 -145 21 -38 56 -92
76 -120 115 -153 149 -321 130 -641 -24 -412 -77 -804 -161 -1198 -54 -253
-161 -657 -171 -640 -3 5 -19 54 -36 109 -140 454 -231 994 -288 1695 -13 169
-14 222 -5 310 21 182 44 248 132 370 87 122 114 183 114 261 0 60 -5 76 -54
174 -46 93 -66 121 -140 195 -95 97 -171 143 -296 185 -101 34 -270 43 -355
20z m325 -189 c188 -56 400 -193 453 -291 21 -40 21 -150 0 -190 -71 -132
-233 -164 -340 -67 -122 110 -98 275 39 277 79 2 84 42 7 51 -28 4 -51 -1 -83
-18 -68 -35 -86 -66 -88 -151 l-2 -72 -48 -12 c-90 -23 -246 -36 -368 -30
-197 9 -385 56 -574 143 l-75 34 35 36 c126 131 390 272 590 314 24 5 116 8
204 6 139 -3 172 -7 250 -30z m1707 10 c119 -30 225 -74 327 -136 83 -49 241
-175 241 -191 0 -29 -274 -133 -437 -166 -125 -24 -394 -25 -524 0 l-97 18 5
58 c9 99 -50 175 -146 188 -41 6 -81 -10 -81 -31 0 -18 20 -25 52 -19 36 7 96
-24 113 -58 61 -116 -67 -280 -216 -279 -103 1 -209 112 -209 220 0 64 22 105
89 170 113 109 294 201 461 235 36 7 124 14 196 14 108 1 148 -3 226 -23z
m-2721 -431 c52 -24 120 -52 151 -62 32 -10 58 -20 58 -23 -1 -3 -71 -40 -158
-82 -86 -42 -211 -113 -277 -156 -66 -44 -122 -78 -124 -77 -7 7 33 112 72
190 33 66 88 153 152 241 15 20 24 18 126 -31z m3366 23 c35 -39 99 -140 138
-218 39 -77 88 -200 83 -206 -2 -1 -62 35 -133 82 -72 47 -196 117 -277 157
-81 40 -148 74 -148 78 0 3 30 15 68 27 37 12 103 40 147 61 44 22 85 40 91
40 6 1 20 -9 31 -21z m-2293 -165 l44 -48 -44 -47 c-24 -26 -55 -73 -69 -105
-72 -161 -72 -161 -190 -238 -252 -164 -514 -291 -805 -388 -129 -44 -337
-100 -351 -95 -17 6 143 199 260 317 195 196 423 362 672 490 176 90 311 141
431 160 4 0 27 -20 52 -46z m1238 22 c191 -38 541 -230 798 -438 168 -136 503
-494 471 -505 -13 -4 -255 60 -361 96 -232 80 -491 200 -693 321 -211 128
-212 128 -278 265 -35 74 -71 134 -93 155 l-35 34 42 48 c24 27 48 46 57 44 8
-2 50 -11 92 -20z m-1827 -15 c39 -5 95 -9 125 -10 l55 0 -92 -49 c-130 -69
-248 -141 -351 -215 l-88 -64 -140 -16 c-78 -9 -192 -16 -254 -16 l-113 0 44
34 c135 102 339 221 529 308 115 53 95 51 285 28z m2534 -21 c177 -75 405
-206 544 -312 l49 -37 -114 0 c-62 0 -171 7 -243 15 -71 8 -135 15 -141 15 -6
0 -44 25 -85 56 -82 62 -288 187 -389 237 l-65 32 100 8 c55 4 120 11 145 16
78 15 100 12 199 -30z m-1715 -139 c-65 -128 -89 -287 -79 -525 l7 -160 -86
-123 c-126 -181 -270 -366 -400 -512 -64 -73 -279 -290 -283 -287 -1 2 11 57
28 123 97 386 223 723 402 1079 49 99 117 233 149 297 39 78 70 126 93 146 33
27 41 28 118 28 l84 -1 -33 -65z m805 28 c44 -43 329 -605 410 -809 116 -291
279 -829 251 -829 -10 0 -226 229 -327 345 -144 166 -294 364 -395 520 l-45
70 10 130 c10 142 -1 303 -28 410 -12 47 -56 151 -82 195 -2 3 36 5 83 5 86 0
86 0 123 -37z m-2192 -398 c-69 -66 -162 -165 -208 -221 -82 -99 -84 -100 -91
-72 -13 44 -22 252 -14 324 l7 66 142 2 c78 1 169 6 202 10 33 5 66 9 73 10 8
0 -42 -53 -111 -119z m3423 105 c52 -4 138 -7 190 -8 l95 -2 9 -85 c9 -79 -5
-315 -19 -329 -3 -3 -13 6 -23 20 -43 62 -203 237 -295 325 -74 70 -95 95 -77
91 14 -4 68 -9 120 -12z m-2550 -209 c-62 -129 -180 -416 -209 -506 -9 -29
-28 -46 -109 -99 -150 -98 -502 -260 -502 -232 0 53 127 373 201 506 85 154
96 167 176 200 108 45 289 139 403 209 58 36 106 65 107 66 1 0 -29 -65 -67
-144z m1930 -50 c69 -35 152 -74 184 -87 53 -21 64 -31 102 -89 49 -76 140
-256 178 -353 32 -81 88 -259 83 -264 -2 -2 -55 17 -118 42 -129 52 -275 127
-396 204 -73 46 -84 58 -99 99 -56 157 -135 347 -200 481 -41 84 -74 155 -74
156 0 2 48 -26 108 -62 59 -36 163 -93 232 -127z m-2634 -318 c-45 -90 -101
-220 -125 -291 -50 -147 -42 -146 -133 -23 -61 82 -143 237 -154 292 l-6 31
94 23 c97 24 350 104 377 120 9 5 19 10 22 10 3 0 -31 -73 -75 -162z m3357 42
c127 -33 128 -34 122 -59 -27 -110 -228 -429 -248 -394 -2 4 -17 46 -32 93
-40 125 -89 242 -153 360 -31 58 -58 108 -60 111 -2 4 52 -12 120 -36 68 -23
181 -57 251 -75z m-2182 -177 c20 -184 57 -451 64 -463 6 -9 -63 -123 -136
-225 -65 -91 -196 -245 -208 -245 -24 0 -71 367 -70 540 0 147 1 148 169 374
85 113 156 204 158 201 2 -2 13 -84 23 -182z m907 -31 l150 -204 7 -85 c8 -89
1 -237 -16 -363 -14 -107 -40 -234 -48 -243 -17 -17 -189 195 -292 358 l-57
91 14 75 c8 41 25 175 39 299 32 281 34 295 45 284 5 -5 76 -101 158 -212z
m-1638 -119 c0 -11 -122 -457 -126 -462 -6 -6 -144 57 -209 97 -72 43 -165
112 -165 121 0 4 37 22 83 41 101 41 273 127 347 174 57 36 70 41 70 29z
m2271 -44 c95 -57 260 -137 349 -170 33 -12 60 -25 60 -29 0 -24 -325 -219
-366 -220 -6 0 -40 106 -76 235 -35 129 -62 235 -58 235 4 0 45 -23 91 -51z
m-1927 -534 c9 -55 18 -115 22 -134 l7 -33 -54 31 c-30 17 -116 66 -191 109
-76 42 -137 80 -135 84 1 3 74 83 162 176 l160 170 7 -152 c4 -83 14 -196 22
-251z m1690 223 l158 -168 -38 -22 c-135 -80 -340 -195 -343 -192 -2 1 4 45
13 96 20 121 36 292 36 393 0 43 4 75 8 70 5 -6 79 -85 166 -177z m1309 -33
c112 -8 109 -5 86 -83 -20 -68 -80 -319 -95 -402 l-9 -45 -59 95 c-73 118
-175 254 -255 342 -34 36 -61 68 -61 71 0 14 210 37 280 31 19 -2 70 -6 113
-9z m-4176 -6 l63 -11 -36 -42 c-133 -155 -239 -300 -330 -452 -8 -14 -15 4
-32 92 -12 60 -40 175 -62 254 -21 79 -37 146 -35 149 21 21 329 28 432 10z
m-484 -61 c2 -13 16 -68 30 -123 91 -351 140 -807 119 -1097 -10 -150 0 -123
-114 -289 -25 -37 -52 -90 -59 -118 -11 -46 -16 -51 -34 -46 -11 4 -37 10 -58
15 -21 4 -41 10 -44 14 -18 18 -63 192 -73 284 -15 137 -15 457 0 592 22 208
82 460 154 647 58 150 68 167 79 121z m637 -60 c22 -150 30 -252 29 -373 -1
-199 -1 -199 -100 -317 -93 -112 -190 -241 -288 -385 -35 -51 -64 -93 -65 -93
0 0 -1 78 -2 173 -1 94 -7 243 -14 329 l-12 157 42 78 c51 96 136 224 202 306
71 89 178 207 188 207 4 0 13 -37 20 -82z m1508 13 c17 -101 88 -404 133 -566
21 -77 37 -140 35 -142 -1 -1 -31 23 -66 54 -92 80 -230 188 -338 266 l-94 66
49 53 c67 71 158 188 212 271 24 37 46 67 50 67 4 0 12 -31 19 -69z m566 41
c21 -41 127 -183 207 -278 38 -45 69 -84 69 -87 0 -3 -35 -30 -79 -61 -74 -51
-273 -209 -368 -291 -44 -37 -50 -36 -33 9 28 74 143 556 165 694 8 49 19 53
39 14z m1580 -72 c109 -121 195 -240 277 -382 l61 -107 -13 -133 c-8 -73 -14
-222 -14 -330 0 -109 -1 -198 -2 -198 -1 0 -36 50 -78 111 -102 147 -190 263
-289 379 l-81 95 0 225 c0 233 21 441 44 440 3 0 46 -45 95 -100z m566 48 c48
-112 121 -354 150 -495 40 -203 52 -326 51 -548 0 -223 -19 -385 -59 -500 -28
-80 -28 -80 -67 -86 -22 -3 -49 -8 -61 -12 -18 -6 -22 0 -38 50 -9 32 -33 81
-52 108 -20 28 -51 74 -71 104 l-35 53 -5 142 c-10 257 21 666 68 906 25 132
79 330 89 330 4 0 18 -24 30 -52z m-4955 25 c-57 -133 -125 -355 -155 -507
l-12 -59 -67 139 c-38 77 -82 163 -100 193 l-33 55 24 18 c53 42 173 112 246
144 88 39 108 42 97 17z m5150 -43 c66 -33 143 -77 170 -97 l51 -38 -97 -190
c-56 -108 -100 -184 -103 -175 -3 8 -10 42 -16 75 -22 112 -90 333 -145 468
-12 28 13 21 140 -43z m-4234 3 c52 -27 132 -75 178 -107 l83 -59 -173 -174
-174 -173 -6 172 c-6 155 -20 302 -36 366 -8 34 20 28 128 -25z m3299 25 c0
-13 -5 -52 -11 -88 -6 -36 -14 -152 -18 -258 l-6 -192 -173 173 -174 174 78
57 c76 56 262 156 290 156 8 0 14 -10 14 -22z m-4556 -333 c24 -44 69 -138
100 -208 l56 -128 -11 -87 c-6 -48 -11 -185 -11 -305 -1 -120 -2 -216 -4 -215
-1 2 -25 37 -51 78 -27 41 -70 101 -96 132 -40 49 -48 67 -59 130 -15 84 -18
618 -5 683 8 38 10 39 23 20 8 -11 35 -56 58 -100z m5780 -230 c1 -172 -4
-292 -13 -355 -12 -88 -16 -98 -53 -140 -22 -25 -66 -85 -99 -133 l-58 -89 0
204 c1 111 -4 249 -10 304 l-12 102 51 118 c49 115 140 294 163 323 22 26 30
-65 31 -334z m-4248 204 c-73 -266 -202 -609 -326 -866 l-68 -142 -92 -46
c-120 -60 -217 -121 -314 -198 -75 -58 -157 -154 -171 -197 -9 -27 -22 -25
-29 4 -3 14 -21 45 -40 69 -32 42 -34 47 -25 88 13 55 25 76 188 328 205 317
386 553 610 796 88 96 293 296 298 291 2 -2 -12 -59 -31 -127z m3070 -364
c140 -170 256 -326 369 -500 54 -82 124 -190 157 -238 33 -48 68 -107 78 -130
24 -52 26 -110 4 -128 -8 -7 -27 -35 -40 -62 l-25 -48 -38 58 c-85 130 -229
242 -459 357 l-94 47 -63 132 c-110 230 -282 695 -340 917 -8 33 -18 67 -21
77 -10 30 365 -353 472 -482z m-2782 348 l185 -107 -98 -36 c-125 -48 -246
-105 -343 -163 -43 -25 -78 -42 -78 -38 0 4 20 68 43 142 24 74 54 173 67 222
13 48 27 87 32 87 4 0 91 -48 192 -107z m2260 73 c4 -19 33 -120 66 -224 33
-105 60 -193 60 -197 0 -3 -24 8 -52 25 -102 59 -254 133 -348 169 -52 20 -97
41 -99 46 -4 10 333 213 355 214 7 1 15 -14 18 -33z m-4235 -126 c-5 -86 -5
-212 1 -310 5 -91 10 -171 10 -178 0 -8 -26 10 -57 38 -32 28 -93 75 -136 103
-71 48 -77 54 -72 81 6 36 84 191 125 251 38 56 131 168 135 163 1 -2 -1 -68
-6 -148z m6085 40 c58 -74 129 -198 157 -272 19 -51 20 -62 8 -68 -40 -23
-160 -113 -207 -155 -29 -26 -54 -46 -57 -44 -2 2 1 45 7 94 5 50 8 195 6 324
l-5 234 24 -29 c13 -16 44 -54 67 -84z m-3859 -172 c-21 -97 -186 -472 -219
-496 -6 -5 -92 -40 -191 -80 -99 -39 -234 -96 -300 -126 -66 -30 -121 -53
-123 -51 -2 1 20 54 49 116 29 63 76 172 105 244 l53 130 78 48 c43 27 123 71
178 99 98 50 337 147 363 148 10 0 12 -9 7 -32z m1657 -4 c126 -43 359 -157
452 -221 l69 -48 67 -160 c37 -88 84 -196 104 -239 20 -44 35 -80 34 -82 -2
-1 -52 20 -113 48 -126 57 -365 156 -443 184 -62 21 -72 33 -136 162 -77 153
-166 392 -146 392 4 0 55 -16 112 -36z m-1491 -33 c107 -50 236 -103 364 -148
55 -20 103 -39 108 -42 4 -4 -57 -24 -135 -45 -79 -21 -242 -70 -363 -108
-121 -38 -230 -72 -243 -75 -22 -5 -20 0 26 93 39 79 117 278 138 352 5 18 13
16 105 -27z m1357 -84 c24 -67 67 -170 96 -229 29 -60 50 -108 46 -108 -3 0
-40 11 -81 25 -122 43 -425 132 -561 166 -70 17 -126 35 -123 39 3 4 17 11 32
15 54 13 290 105 408 159 66 30 125 55 130 55 6 1 30 -54 53 -122z m-3943
-158 c181 -125 361 -334 460 -534 60 -121 109 -255 98 -266 -5 -3 -25 -12 -45
-18 -99 -32 -135 -168 -67 -255 41 -52 77 -19 38 34 -46 62 -22 147 49 177 95
39 220 5 277 -75 40 -57 48 -158 17 -218 -40 -78 -113 -124 -197 -124 -53 0
-218 65 -305 121 -253 163 -409 414 -451 726 -21 156 8 483 43 483 5 0 43 -23
83 -51z m6500 -36 c73 -368 -26 -740 -260 -976 -105 -106 -217 -178 -374 -241
-131 -53 -244 -17 -302 96 -26 51 -26 146 1 199 53 104 217 147 314 84 49 -32
59 -103 24 -166 -16 -29 -19 -42 -11 -50 18 -18 40 -3 63 40 49 97 4 212 -93
236 -15 4 -30 11 -32 16 -10 15 45 160 101 268 75 146 168 273 282 383 94 91
233 198 257 198 7 0 19 -36 30 -87z m-3339 -100 c-13 -42 -56 -319 -66 -433
-6 -69 -13 -134 -16 -145 l-3 -21 -113 23 c-61 12 -175 28 -251 35 l-139 12
34 31 c151 134 341 311 433 403 61 61 114 111 118 111 5 1 6 -7 3 -16z m259
-168 c99 -95 228 -215 287 -267 l107 -93 -128 -12 c-70 -6 -183 -21 -250 -33
-67 -12 -124 -20 -125 -18 -2 1 -11 77 -20 168 -10 91 -28 224 -42 297 -27
148 -27 149 -16 139 4 -5 88 -86 187 -181z m-565 -450 c100 -16 189 -34 203
-42 34 -20 -305 -273 -487 -365 l-79 -40 -151 17 c-211 23 -367 43 -372 48 -3
2 13 15 34 29 59 39 391 290 447 337 l50 43 130 -6 c72 -4 173 -13 225 -21z
m1123 -44 c83 -69 271 -212 384 -291 35 -24 61 -45 59 -47 -5 -5 -166 -26
-372 -48 l-151 -17 -82 41 c-96 49 -198 113 -298 188 -93 70 -205 171 -195
177 13 8 217 46 292 55 41 5 121 9 178 10 l103 1 82 -69z m-553 -178 c81 -65
231 -166 311 -209 49 -27 62 -44 33 -44 -8 0 -112 -22 -231 -50 -119 -27 -217
-50 -219 -50 -2 0 -4 100 -4 222 0 210 1 220 18 206 9 -8 51 -42 92 -75z
m-350 -139 l0 -216 -22 6 c-13 3 -115 26 -228 52 -113 26 -209 50 -214 55 -4
4 11 17 35 30 75 38 230 142 323 217 49 40 93 72 98 72 4 0 8 -97 8 -216z
m-813 -114 c206 -25 396 -60 598 -110 229 -55 224 -53 140 -79 -344 -105 -796
-185 -1185 -210 -519 -34 -550 -31 -589 63 -12 30 -29 60 -37 67 -24 20 -16
24 61 26 131 4 364 100 551 228 l69 47 115 -6 c63 -4 187 -15 277 -26z m2377
-47 c200 -127 369 -193 503 -196 40 -1 73 -3 73 -5 0 -1 -13 -20 -29 -43 -16
-22 -33 -53 -36 -69 -5 -23 -16 -33 -51 -46 -42 -16 -66 -16 -307 -5 -530 24
-881 77 -1322 198 -71 20 -134 39 -138 43 -11 9 194 63 403 107 211 43 554 88
709 91 l74 2 121 -77z m-3554 -207 c68 -34 103 -91 108 -175 4 -74 -9 -113
-57 -164 -74 -80 -161 -75 -210 13 -24 43 -44 48 -49 12 -5 -34 35 -90 81
-113 58 -30 124 -22 179 21 l41 33 43 -49 c213 -242 337 -537 368 -876 8 -80
9 -80 -96 -42 -216 78 -412 214 -543 379 -71 88 -148 245 -175 355 -46 185
-33 456 26 541 64 93 176 118 284 65z m4406 13 c38 -12 98 -73 117 -119 24
-58 41 -212 34 -318 -23 -366 -252 -685 -620 -863 -84 -41 -215 -85 -224 -75
-3 3 -1 53 6 111 12 113 48 269 85 368 57 153 172 343 273 455 l48 53 43 -32
c53 -39 123 -50 168 -26 48 25 86 72 87 109 3 45 -21 44 -46 -3 -47 -89 -139
-91 -214 -5 -42 46 -56 96 -51 172 3 52 9 70 35 101 65 81 150 105 259 72z
m-2401 -76 c8 -93 1 -306 -10 -335 -6 -15 -19 -8 -88 46 -92 71 -218 154 -320
211 -37 20 -66 39 -64 41 4 5 447 122 464 123 7 1 14 -30 18 -86z m458 27
c127 -33 232 -62 235 -64 2 -3 -20 -17 -50 -32 -88 -44 -237 -142 -330 -215
-58 -45 -90 -64 -94 -57 -19 30 -16 428 3 428 3 0 109 -27 236 -60z m-750
-253 c92 -60 256 -187 257 -198 0 -8 -174 -45 -305 -66 -55 -8 -173 -16 -261
-17 l-162 -1 -43 33 c-94 70 -310 210 -407 262 -56 30 -102 58 -102 61 0 3 44
9 98 13 127 8 402 43 522 65 l95 17 108 -54 c60 -30 150 -82 200 -115z m1418
119 c103 -14 234 -28 293 -32 58 -4 106 -10 106 -14 0 -3 -17 -14 -37 -24 -77
-36 -272 -157 -393 -242 l-125 -89 -150 1 c-160 1 -284 14 -430 45 -49 11
-102 23 -117 26 -16 3 -28 8 -28 11 0 8 32 34 130 111 105 82 177 127 313 197
l119 61 66 -13 c37 -8 151 -25 253 -38z m-2741 -51 l175 0 65 -34 c269 -139
529 -314 730 -490 109 -95 290 -273 290 -285 0 -22 -298 33 -489 91 -376 114
-810 359 -979 552 l-54 62 16 39 c9 22 16 50 16 61 0 18 4 20 28 13 15 -5 106
-9 202 -9z m3670 -4 c0 -10 6 -36 14 -58 l14 -40 -54 -63 c-128 -152 -476
-366 -799 -491 -178 -70 -457 -140 -616 -155 l-64 -6 110 112 c251 255 590
502 914 664 l94 48 151 -7 c89 -3 163 -2 181 4 45 14 55 13 55 -8z m-2140
-432 c-34 -84 -118 -225 -175 -295 l-34 -41 -128 124 c-70 68 -156 148 -190
176 l-62 52 97 7 c178 13 306 29 412 51 58 12 107 19 108 14 2 -4 -11 -44 -28
-88z m625 47 c66 -9 170 -20 232 -24 l112 -7 -62 -51 c-34 -28 -120 -107 -190
-174 -127 -122 -128 -122 -148 -104 -58 52 -200 305 -215 382 l-6 30 78 -18
c44 -10 133 -26 199 -34z m-1929 -165 c60 -33 147 -76 194 -96 47 -21 95 -49
107 -64 86 -102 271 -386 259 -398 -11 -11 -331 156 -451 236 -199 132 -228
158 -255 232 -12 35 -42 103 -66 151 -24 48 -44 90 -44 93 0 3 33 -17 74 -44
41 -28 123 -77 182 -110z m3213 94 c-17 -31 -49 -100 -69 -153 l-38 -97 -89
-67 c-48 -38 -135 -98 -193 -134 -114 -72 -387 -210 -397 -201 -12 12 123 226
223 354 47 59 57 66 219 147 94 47 215 114 270 149 55 35 101 62 103 61 2 -1
-11 -27 -29 -59z m-2544 -355 c66 -16 162 -36 214 -44 52 -9 96 -18 98 -20 10
-10 -159 -126 -251 -172 -52 -27 -96 -46 -99 -44 -2 3 -25 43 -52 89 -27 47
-77 124 -112 172 -35 49 -63 90 -63 93 0 3 33 -6 72 -20 40 -13 127 -38 193
-54z m1909 68 c-5 -7 -32 -47 -62 -88 -29 -41 -76 -114 -104 -163 -28 -48 -55
-90 -59 -93 -21 -13 -285 142 -334 196 -19 21 -22 20 110 41 87 14 275 60 375
93 41 13 76 24 78 25 2 1 0 -5 -4 -11z m-2439 -223 c50 -31 146 -84 215 -118
l125 -61 -65 -15 c-72 -16 -336 -21 -412 -8 l-46 8 -7 87 c-4 48 -13 121 -21
162 -8 41 -14 81 -14 87 0 7 30 -9 68 -36 37 -27 108 -75 157 -106z m2921 71
c-9 -42 -19 -119 -22 -170 l-7 -94 -31 -6 c-110 -23 -361 -15 -462 13 -27 8
-24 10 59 49 109 51 298 163 397 235 41 30 77 54 78 52 2 -2 -3 -38 -12 -79z"/>
</g>
</svg>
